#N canvas 75 77 1182 875 12;
#X obj 58 85 openpanel;
#X msg 58 136 open \$1;
#X msg 73 188 start;
#X obj 58 59 bng 19 250 50 0 empty empty empty 0 -10 0 12 #fcfcfc #000000 #000000;
#X obj 164 146 symbol;
#X obj 132 85 t b b;
#X obj 73 165 del 10;
#X text 107 55 looping;
#X obj 73 602 *~;
#X obj 73 639 dac~;
#X obj 94 574 hsl 162 19 0 1 0 0 empty empty empty -2 -10 0 12 #fcfcfc #000000 #000000 0 1;
#X obj 262 490 hsl 162 19 0 1 0 0 empty empty empty -2 -10 0 12 #dfdfdf #000000 #000000 0 1;
#X text 265 576 volume;
#X text 431 491 decoded;
#X obj 259 514 sig~;
#X obj 264 66 tgl 19 0 empty empty empty 0 -10 0 12 #fcfcfc #000000 #000000 0 1;
#X msg 264 95 \; pd dsp \$1;
#X obj 58 217 readsf~ 1 1;
#X obj 58 251 send~ sample;
#X obj 456 64 r~ sample;
#X obj 73 502 r~ sample;
#X obj 166 502 r~ decoded;
#X obj 456 168 +~;
#X obj 544 168 +~;
#X obj 633 168 +~;
#X obj 721 168 +~;
#X floatatom 474 141 3 0 0 0 - - - 0;
#X floatatom 562 141 3 0 0 0 - - - 0;
#X floatatom 651 141 3 0 0 0 - - - 0;
#X floatatom 739 141 3 0 0 0 - - - 0;
#X obj 456 388 s~ decoded;
#X obj 73 542 expr~ $v2*$v3 + $v1*(1-$v3);
#X obj 776 254 snapshot~;
#X floatatom 776 288 9 0 0 0 - - - 0;
#X obj 846 254 snapshot~;
#X floatatom 846 288 9 0 0 0 - - - 0;
#X obj 916 254 snapshot~;
#X floatatom 916 288 9 0 0 0 - - - 0;
#X obj 986 254 snapshot~;
#X floatatom 986 288 9 0 0 0 - - - 0;
#X obj 776 192 tgl 19 0 empty empty empty 0 -10 0 12 #fcfcfc #000000 #000000 0 1;
#X obj 776 220 metro 1;
#X obj 456 94 nn~ vae-footsteps-4lat.ts encode 4096, f 51;
#X obj 456 344 nn~ vae-footsteps-4lat.ts decode 4096, f 39;
#X connect 0 0 1 0;
#X connect 0 0 4 0;
#X connect 1 0 17 0;
#X connect 2 0 17 0;
#X connect 3 0 0 0;
#X connect 4 0 1 0;
#X connect 5 0 6 0;
#X connect 5 1 4 0;
#X connect 6 0 2 0;
#X connect 8 0 9 0;
#X connect 8 0 9 1;
#X connect 10 0 8 1;
#X connect 11 0 14 0;
#X connect 14 0 31 2;
#X connect 15 0 16 0;
#X connect 17 0 18 0;
#X connect 17 1 5 0;
#X connect 19 0 42 0;
#X connect 20 0 31 0;
#X connect 21 0 31 1;
#X connect 22 0 32 0;
#X connect 22 0 43 0;
#X connect 23 0 34 0;
#X connect 23 0 43 1;
#X connect 24 0 36 0;
#X connect 24 0 43 2;
#X connect 25 0 38 0;
#X connect 25 0 43 3;
#X connect 26 0 22 1;
#X connect 27 0 23 1;
#X connect 28 0 24 1;
#X connect 29 0 25 1;
#X connect 31 0 8 0;
#X connect 32 0 33 0;
#X connect 34 0 35 0;
#X connect 36 0 37 0;
#X connect 38 0 39 0;
#X connect 40 0 41 0;
#X connect 41 0 32 0;
#X connect 41 0 34 0;
#X connect 41 0 36 0;
#X connect 41 0 38 0;
#X connect 42 0 22 0;
#X connect 42 1 23 0;
#X connect 42 2 24 0;
#X connect 42 3 25 0;
#X connect 43 0 30 0;
