#N canvas 206 148 975 788 12;
#X obj 655 589 dac~;
#X obj 655 546 *~;
#X obj 683 517 hsl 162 19 0 1 0 0 empty empty empty -2 -10 0 12 #fcfcfc #000000 #000000 0 1;
#X obj 655 304 vsl 19 162 -4 4 0 0 empty empty empty 0 -9 0 12 #fcfcfc #000000 #000000 0 1;
#X obj 688 304 vsl 19 162 -4 4 0 0 empty empty empty 0 -9 0 12 #fcfcfc #000000 #000000 0 1;
#X obj 722 304 vsl 19 162 -4 4 0 0 empty empty empty 0 -9 0 12 #fcfcfc #000000 #000000 0 1;
#X obj 755 304 vsl 19 162 -4 4 0 0 empty empty empty 0 -9 0 12 #fcfcfc #000000 #000000 0 1;
#X obj 789 304 vsl 19 162 -4 4 0 0 empty empty empty 0 -9 0 12 #fcfcfc #000000 #000000 0 1;
#X obj 821 304 vsl 19 162 -4 4 0 0 empty empty empty 0 -9 0 12 #fcfcfc #000000 #000000 0 1;
#X obj 856 305 vsl 19 162 -4 4 0 0 empty empty empty 0 -9 0 12 #fcfcfc #000000 #000000 0 1;
#X obj 890 305 vsl 19 162 -4 4 0 0 empty empty empty 0 -9 0 12 #fcfcfc #000000 #000000 0 1;
#X obj 655 484 nn~ bvae-ybalferran.ts decode 8192;
#X obj 46 175 random 1000;
#X obj 46 310 line;
#X floatatom 99 95 5 0 0 0 - - - 0;
#X msg 46 283 \$1 \$2;
#X obj 46 260 pack f f;
#X obj 46 146 metro;
#X floatatom 46 337 5 0 0 0 - - - 0;
#X obj 46 113 t b f;
#X msg 99 68 1500;
#X obj 46 204 / 1000;
#X obj 157 175 random 1000;
#X obj 157 310 line;
#X floatatom 210 95 5 0 0 0 - - - 0;
#X msg 157 283 \$1 \$2;
#X obj 157 260 pack f f;
#X obj 157 146 metro;
#X floatatom 157 337 5 0 0 0 - - - 0;
#X obj 157 113 t b f;
#X msg 210 68 1500;
#X obj 157 204 / 1000;
#X obj 277 175 random 1000;
#X obj 277 310 line;
#X floatatom 330 95 5 0 0 0 - - - 0;
#X msg 277 283 \$1 \$2;
#X obj 277 260 pack f f;
#X obj 277 146 metro;
#X floatatom 277 337 5 0 0 0 - - - 0;
#X obj 277 113 t b f;
#X msg 330 68 1500;
#X obj 277 204 / 1000;
#X obj 387 175 random 1000;
#X obj 387 310 line;
#X floatatom 440 95 5 0 0 0 - - - 0;
#X msg 387 283 \$1 \$2;
#X obj 387 260 pack f f;
#X obj 387 146 metro;
#X floatatom 387 337 5 0 0 0 - - - 0;
#X obj 387 113 t b f;
#X msg 440 68 1500;
#X obj 387 204 / 1000;
#X obj 56 525 random 1000;
#X obj 56 660 line;
#X floatatom 109 445 5 0 0 0 - - - 0;
#X msg 56 633 \$1 \$2;
#X obj 56 610 pack f f;
#X obj 56 496 metro;
#X floatatom 56 687 5 0 0 0 - - - 0;
#X obj 56 463 t b f;
#X msg 109 418 1500;
#X obj 56 554 / 1000;
#X obj 167 525 random 1000;
#X obj 167 660 line;
#X floatatom 220 445 5 0 0 0 - - - 0;
#X msg 167 633 \$1 \$2;
#X obj 167 610 pack f f;
#X obj 167 496 metro;
#X floatatom 167 687 5 0 0 0 - - - 0;
#X obj 167 463 t b f;
#X msg 220 418 1500;
#X obj 167 554 / 1000;
#X obj 287 525 random 1000;
#X obj 287 660 line;
#X floatatom 340 445 5 0 0 0 - - - 0;
#X msg 287 633 \$1 \$2;
#X obj 287 610 pack f f;
#X obj 287 496 metro;
#X floatatom 287 687 5 0 0 0 - - - 0;
#X obj 287 463 t b f;
#X msg 340 418 1500;
#X obj 287 554 / 1000;
#X obj 397 525 random 1000;
#X obj 397 660 line;
#X floatatom 450 445 5 0 0 0 - - - 0;
#X msg 397 633 \$1 \$2;
#X obj 397 610 pack f f;
#X obj 397 496 metro;
#X floatatom 397 687 5 0 0 0 - - - 0;
#X obj 397 463 t b f;
#X msg 450 418 1500;
#X obj 397 554 / 1000;
#X obj 397 734 - 4;
#X obj 397 710 * 8;
#X obj 287 710 * 8;
#X obj 287 734 - 4;
#X obj 167 710 * 8;
#X obj 56 710 * 8;
#X obj 56 734 - 4;
#X obj 387 360 * 8;
#X obj 387 384 - 4;
#X obj 277 360 * 8;
#X obj 277 384 - 4;
#X obj 157 360 * 8;
#X obj 157 384 - 4;
#X obj 46 360 * 8;
#X obj 46 384 - 4;
#X obj 167 734 - 4;
#X connect 1 0 0 0;
#X connect 1 0 0 1;
#X connect 2 0 1 1;
#X connect 3 0 11 0;
#X connect 4 0 11 1;
#X connect 5 0 11 2;
#X connect 6 0 11 3;
#X connect 7 0 11 4;
#X connect 8 0 11 5;
#X connect 9 0 11 6;
#X connect 10 0 11 7;
#X connect 11 0 1 0;
#X connect 12 0 21 0;
#X connect 13 0 18 0;
#X connect 14 0 19 0;
#X connect 14 0 16 1;
#X connect 15 0 13 0;
#X connect 16 0 15 0;
#X connect 17 0 12 0;
#X connect 18 0 105 0;
#X connect 19 0 17 0;
#X connect 19 1 17 1;
#X connect 20 0 14 0;
#X connect 21 0 16 0;
#X connect 22 0 31 0;
#X connect 23 0 28 0;
#X connect 24 0 29 0;
#X connect 24 0 26 1;
#X connect 25 0 23 0;
#X connect 26 0 25 0;
#X connect 27 0 22 0;
#X connect 28 0 103 0;
#X connect 29 0 27 0;
#X connect 29 1 27 1;
#X connect 30 0 24 0;
#X connect 31 0 26 0;
#X connect 32 0 41 0;
#X connect 33 0 38 0;
#X connect 34 0 39 0;
#X connect 34 0 36 1;
#X connect 35 0 33 0;
#X connect 36 0 35 0;
#X connect 37 0 32 0;
#X connect 38 0 101 0;
#X connect 39 0 37 0;
#X connect 39 1 37 1;
#X connect 40 0 34 0;
#X connect 41 0 36 0;
#X connect 42 0 51 0;
#X connect 43 0 48 0;
#X connect 44 0 49 0;
#X connect 44 0 46 1;
#X connect 45 0 43 0;
#X connect 46 0 45 0;
#X connect 47 0 42 0;
#X connect 48 0 99 0;
#X connect 49 0 47 0;
#X connect 49 1 47 1;
#X connect 50 0 44 0;
#X connect 51 0 46 0;
#X connect 52 0 61 0;
#X connect 53 0 58 0;
#X connect 54 0 59 0;
#X connect 54 0 56 1;
#X connect 55 0 53 0;
#X connect 56 0 55 0;
#X connect 57 0 52 0;
#X connect 58 0 97 0;
#X connect 59 0 57 0;
#X connect 59 1 57 1;
#X connect 60 0 54 0;
#X connect 61 0 56 0;
#X connect 62 0 71 0;
#X connect 63 0 68 0;
#X connect 64 0 69 0;
#X connect 64 0 66 1;
#X connect 65 0 63 0;
#X connect 66 0 65 0;
#X connect 67 0 62 0;
#X connect 68 0 96 0;
#X connect 69 0 67 0;
#X connect 69 1 67 1;
#X connect 70 0 64 0;
#X connect 71 0 66 0;
#X connect 72 0 81 0;
#X connect 73 0 78 0;
#X connect 74 0 79 0;
#X connect 74 0 76 1;
#X connect 75 0 73 0;
#X connect 76 0 75 0;
#X connect 77 0 72 0;
#X connect 78 0 94 0;
#X connect 79 0 77 0;
#X connect 79 1 77 1;
#X connect 80 0 74 0;
#X connect 81 0 76 0;
#X connect 82 0 91 0;
#X connect 83 0 88 0;
#X connect 84 0 89 0;
#X connect 84 0 86 1;
#X connect 85 0 83 0;
#X connect 86 0 85 0;
#X connect 87 0 82 0;
#X connect 88 0 93 0;
#X connect 89 0 87 0;
#X connect 89 1 87 1;
#X connect 90 0 84 0;
#X connect 91 0 86 0;
#X connect 92 0 10 0;
#X connect 93 0 92 0;
#X connect 94 0 95 0;
#X connect 95 0 9 0;
#X connect 96 0 107 0;
#X connect 97 0 98 0;
#X connect 98 0 7 0;
#X connect 99 0 100 0;
#X connect 100 0 6 0;
#X connect 101 0 102 0;
#X connect 102 0 5 0;
#X connect 103 0 104 0;
#X connect 104 0 4 0;
#X connect 105 0 106 0;
#X connect 106 0 3 0;
#X connect 107 0 8 0;
