#N canvas 404 124 450 300 12;
#X obj 37 62 inlet;
#X text 32 16 clock divider;
#X obj 37 86 t b b;
#X obj 69 141 f;
#X obj 100 141 + 1;
#X obj 69 209 sel 0;
#X obj 69 233 bng 19 250 50 0 empty empty empty 0 -10 0 12 #fcfcfc #000000 #000000;
#X obj 69 257 outlet;
#X obj 69 175 mod \$1;
#X floatatom 133 220 5 0 0 0 - - - 0;
#X msg 132 141 0;
#X obj 220 63 inlet;
#X text 81 62 clock;
#X text 264 63 division;
#X obj 220 87 int;
#X connect 0 0 2 0;
#X connect 2 1 3 0;
#X connect 3 0 4 0;
#X connect 3 0 9 0;
#X connect 3 0 8 0;
#X connect 4 0 3 1;
#X connect 5 0 6 0;
#X connect 5 0 10 0;
#X connect 6 0 7 0;
#X connect 8 0 5 0;
#X connect 10 0 4 0;
#X connect 11 0 14 0;
#X connect 14 0 8 1;
