#N canvas 555 162 789 674 12;
#X obj 27 568 outlet~;
#X obj 295 134 inlet;
#X obj 27 427 osc~;
#X msg 295 276 0;
#X obj 295 300 send \$0-reset;
#X text 329 277 reset;
#X obj 52 404 r \$0-reset;
#X obj 27 382 r \$0-freq;
#X text 26 356 SINUSOID;
#X obj 180 429 phasor~;
#X obj 226 402 r \$0-reset;
#X obj 180 380 r \$0-freq;
#X text 179 356 SAWTOOTH;
#N canvas 706 159 547 552 \$0-rand~ 0;
#X obj 96 295 random 1000;
#X msg 96 403 \$1 \$2;
#X obj 96 380 pack f f;
#X obj 96 266 metro;
#X obj 96 193 t b f;
#X obj 96 132 inlet;
#X obj 167 133 inlet;
#X obj 96 454 outlet~;
#X text 95 107 Hz;
#X text 165 110 reset;
#X msg 239 185 0;
#X obj 96 324 / 500;
#X obj 96 351 - 1;
#X obj 96 430 line~;
#X obj 96 160 hz2ms;
#X obj 167 158 t b b b;
#X msg 193 375 0 1;
#X obj 167 186 del 5;
#X connect 0 0 11 0;
#X connect 1 0 13 0;
#X connect 2 0 1 0;
#X connect 3 0 0 0;
#X connect 4 0 3 0;
#X connect 4 0 15 0;
#X connect 4 1 3 1;
#X connect 5 0 14 0;
#X connect 6 0 15 0;
#X connect 10 0 3 0;
#X connect 11 0 12 0;
#X connect 12 0 2 0;
#X connect 13 0 7 0;
#X connect 14 0 4 0;
#X connect 14 0 2 1;
#X connect 15 0 17 0;
#X connect 15 1 16 0;
#X connect 15 2 10 0;
#X connect 16 0 13 0;
#X connect 17 0 3 0;
#X restore 405 430 pd \$0-rand~;
#X obj 405 381 r \$0-freq;
#X text 406 349 RANDOM SMOOTH;
#X obj 479 402 r \$0-reset;
#X obj 180 478 expr~ $v1*2-1;
#X text 185 457 map to [-1 \, 1];
#X obj 103 102 cnv 19 95 100 empty empty empty 20 12 0 12 #e0e0e0 #404040 0;
#X obj 108 186 hsl 85 12 0 1 0 0 \$0-scale empty empty -2 -10 0 12 #fcfcfc #000000 #000000 0 1;
#X floatatom 106 166 6 0 0 0 - \$0-min-init \$0-min 10;
#X floatatom 147 166 5 0 0 0 - \$0-max-init \$0-max 10;
#X text 104 148 range;
#X obj 26 274 pack f f;
#X obj 26 202 r \$0-min;
#X obj 47 224 r \$0-max;
#X obj 47 248 t b f;
#X obj 26 298 send \$0-range;
#X obj 45 452 r \$0-range;
#X obj 27 534 *~;
#X obj 45 502 r \$0-scale;
#X obj 180 607 outlet~;
#X obj 180 538 sc~;
#X obj 198 510 r \$0-range;
#X obj 180 582 *~;
#X obj 198 560 r \$0-scale;
#X obj 405 559 outlet~;
#X obj 405 490 sc~;
#X obj 423 462 r \$0-range;
#X obj 405 534 *~;
#X obj 423 512 r \$0-scale;
#X text 186 143 O;
#X obj 27 480 sc~;
#X obj 523 55 loadbang;
#X obj 523 113 s \$0-min-init;
#X obj 563 142 s \$0-max-init;
#X msg 523 86 -1;
#X msg 563 86 1;
#X text 140 107 Hz;
#X floatatom 106 108 5 0 0 0 - \$0-freq-rec \$0-freq 10;
#X text 186 131 F;
#X text 186 117 L;
#X text 186 104 Q;
#X obj 295 161 route bang float;
#X obj 349 190 send \$0-freq-rec;
#X text 125 129 sync;
#X obj 107 131 tgl 15 0 \$0-sync empty empty 0 -10 0 12 #fcfcfc #000000 #000000 0 1;
#X obj 295 248 spigot;
#X obj 334 218 r \$0-sync;
#X connect 1 0 54 0;
#X connect 2 0 43 0;
#X connect 3 0 4 0;
#X connect 6 0 2 1;
#X connect 7 0 2 0;
#X connect 9 0 17 0;
#X connect 10 0 9 1;
#X connect 11 0 9 0;
#X connect 13 0 38 0;
#X connect 14 0 13 0;
#X connect 16 0 13 1;
#X connect 17 0 33 0;
#X connect 24 0 28 0;
#X connect 25 0 24 0;
#X connect 26 0 27 0;
#X connect 27 0 24 0;
#X connect 27 1 24 1;
#X connect 29 0 43 1;
#X connect 30 0 0 0;
#X connect 31 0 30 1;
#X connect 33 0 35 0;
#X connect 34 0 33 1;
#X connect 35 0 32 0;
#X connect 36 0 35 1;
#X connect 38 0 40 0;
#X connect 39 0 38 1;
#X connect 40 0 37 0;
#X connect 41 0 40 1;
#X connect 43 0 30 0;
#X connect 44 0 47 0;
#X connect 44 0 48 0;
#X connect 47 0 45 0;
#X connect 48 0 46 0;
#X connect 54 0 58 0;
#X connect 54 1 55 0;
#X connect 58 0 3 0;
#X connect 59 0 58 1;
#X coords 0 -1 1 1 100 105 2 100 100;
