#N canvas 159 56 1353 853 12;
#N canvas 558 273 699 334 abl-sync 0;
#X obj 38 223 abl_link~;
#X obj 38 160 loadbang;
#X obj 123 161 hsl 162 19 0 127 0 0 empty empty empty -2 -10 0 12 #fcfcfc #000000 #000000 0 1;
#X msg 120 185 offset \$1;
#X obj 98 289 s is-playing;
#X obj 118 76 r bpm;
#X obj 83 313 s bpm;
#X msg 38 184 connect 1;
#X obj 100 100 cnv 21 48 21 empty empty empty 20 12 0 12 #dfdfdf #404040 0;
#X obj 103 103 bng 15 250 50 0 empty empty empty 0 -10 0 12 #fcfcfc #000000 #000000;
#X floatatom 118 103 4 0 0 0 - - - 10;
#X obj 38 271 s clock;
#X obj 103 49 r clock;
#X obj 38 247 bng 19 250 50 0 empty empty empty 0 -10 0 12 #fcfcfc #000000 #000000;
#X connect 0 0 13 0;
#X connect 0 3 6 0;
#X connect 0 4 4 0;
#X connect 1 0 7 0;
#X connect 2 0 3 0;
#X connect 3 0 0 0;
#X connect 5 0 10 0;
#X connect 7 0 0 0;
#X connect 12 0 9 0;
#X connect 13 0 11 0;
#X coords 0 -1 1 1 48 21 2 100 100;
#X restore 2 3 pd abl-sync;
#X obj 22 33 r clock;
#X obj 22 569 track~;
#X obj 22 108 lfo~;
#X obj 22 55 cdiv 16;
#X obj 22 241 mod-matrix;
#X obj 126 108 lfo~;
#X obj 229 108 lfo~;
#X obj 332 108 lfo~;
#X obj 202 241 mod-matrix;
#N canvas 48 127 758 728 visuals 0;
#X obj 479 221 gemhead;
#X obj 40 25 vradio 19 1 0 3 empty empty empty 0 -10 0 12 #fcfcfc #000000 #000000 0;
#X text 62 24 small window;
#X text 61 44 fullscreen \, mac;
#X text 61 64 fullscreen \, external;
#X msg 59 280 0 \, destroy;
#X obj 40 313 gemwin;
#X msg 229 36 0;
#N canvas 63 101 441 182 esc 0;
#X obj 89 75 keyname;
#X obj 135 104 select Escape;
#X obj 135 135 outlet;
#X connect 0 1 1 0;
#X connect 1 0 2 0;
#X restore 59 255 pd esc;
#X obj 479 257 color 1 1 0;
#N canvas 757 129 404 498 rectangle 0;
#X obj 19 433 rectangle 640 400;
#X obj 19 411 color 0 0 0;
#X obj 19 205 f;
#X obj 54 205 + 1;
#X obj 19 235 select 0 1;
#X msg 19 330 0 0 0;
#X obj 19 375 gemhead;
#X obj 88 205 mod 2;
#X obj 19 170 metro;
#X obj 19 65 hz2ms;
#X obj 19 89 t b f;
#X obj 19 39 r flashing-freq;
#X floatatom 206 135 5 0 60 0 - - flashing-freq 0;
#X text 245 137 Hz;
#X obj 206 109 tgl 19 0 flashing-on empty empty 0 -10 0 12 #fcfcfc #000000 #000000 0 1;
#X text 228 110 flash;
#X obj 19 140 spigot;
#X obj 58 113 r flashing-on;
#X obj 107 265 r flashing-on;
#X obj 107 289 sel 0;
#X msg 93 330 1 1 1;
#X connect 1 0 0 0;
#X connect 2 0 3 0;
#X connect 2 0 4 0;
#X connect 3 0 7 0;
#X connect 4 0 5 0;
#X connect 4 1 20 0;
#X connect 5 0 1 1;
#X connect 6 0 1 0;
#X connect 7 0 2 1;
#X connect 8 0 2 0;
#X connect 9 0 10 0;
#X connect 10 0 16 0;
#X connect 10 1 8 1;
#X connect 11 0 9 0;
#X connect 16 0 8 0;
#X connect 17 0 16 1;
#X connect 17 0 8 0;
#X connect 18 0 19 0;
#X connect 19 0 5 0;
#X connect 20 0 1 1;
#X coords 0 -1 1 1 85 60 2 200 100;
#X restore 323 364 pd rectangle;
#X obj 479 432 text2d;
#X msg 51 223 frame \$1;
#X obj 51 198 change;
#X msg 51 174 20;
#N canvas 349 216 818 535 text 0;
#X obj 20 235 outlet;
#X msg 20 121 text Close your eyes now.;
#X msg 20 91 text The light effects will guide you.;
#X msg 20 31 text Now imagine you are at a peak of a mountain.;
#X msg 20 61 text There is a lot of fog.;
#X msg 412 31 text Do you feel something now?;
#X msg 412 57 text You're fine.;
#X msg 412 83 text It's fine.;
#X connect 1 0 0 0;
#X connect 2 0 0 0;
#X connect 3 0 0 0;
#X connect 4 0 0 0;
#X connect 5 0 0 0;
#X connect 6 0 0 0;
#X connect 7 0 0 0;
#X restore 514 288 pd text;
#X text 574 288 <--- Open this;
#X text 86 173 <-- fps;
#X obj 479 190 tgl 19 0 empty empty empty 0 -10 0 12 #fcfcfc #000000 #000000 0 1;
#X msg 518 405 16;
#X obj 518 382 loadbang;
#X msg 40 98 reset \, dimen \, 1920 1080 \, cursor 1 \, color 0 0 0 \, title Seven_Manifolds \, menubar -1 \, fullscreen \$1 \, create \, 1, f 33;
#X connect 0 0 9 0;
#X connect 1 0 21 0;
#X connect 5 0 6 0;
#X connect 7 0 21 0;
#X connect 8 0 5 0;
#X connect 9 0 11 0;
#X connect 12 0 6 0;
#X connect 13 0 12 0;
#X connect 14 0 13 0;
#X connect 15 0 11 0;
#X connect 18 0 0 0;
#X connect 19 0 11 1;
#X connect 20 0 19 0;
#X connect 21 0 6 0;
#X restore 539 323 pd visuals;
#X floatatom 79 34 5 0 0 0 - - - 0;
#X obj 451 108 noiser~;
#X obj 150 514 s model-out;
#N canvas 527 71 596 499 bending-wrapper 0;
#N canvas 477 191 799 568 bending 0;
#X obj 102 102 cnv 19 518 398 empty empty empty 20 12 0 12 #dfdfdf #404040 0;
#N canvas 324 362 450 278 (subpatch) 0;
#X array weights 262144 float 2;
#X coords 0 1.5 262144 -1.5 400 200 1 0 0;
#X restore 124 250 graph;
#X obj 127 450 hsl 395 19 0 1 0 0 weights_roll weights_roll_rec empty -2 -10 0 12 #fcfcfc #000000 #000000 0 1;
#X obj 524 252 vsl 19 195 -3 3 0 0 weights_shift weights_shift_rec empty 0 -9 0 12 #fcfcfc #000000 #000000 0 1;
#X obj 543 252 vsl 19 195 -1 30 0 0 weights_multiply weights_multiply_rec empty 0 -9 0 12 #fcfcfc #000000 #000000 0 1;
#X obj 505 231 tgl 19 0 weights_flip weights_flip_rec empty 0 -10 0 12 #fcfcfc #000000 #000000 0 1;
#X text 528 232 flip;
#N canvas 372 114 737 547 guts 0;
#X msg 27 259 get_weights \$1;
#X obj 27 202 r layer_name;
#N canvas 179 217 450 278 (subpatch) 0;
#X array b_orig 262144 float 2;
#X coords 0 1.5 262144 -1.5 200 140 1 0 0;
#X restore 333 106 graph;
#X obj 27 287 s model-in;
#N canvas 312 92 1267 807 operations 0;
#X obj 690 85 r weights_roll;
#X obj 369 85 r weights_multiply;
#X obj 176 85 r weights_shift;
#X obj 689 187 t f b;
#X obj 689 409 list-abs/list-rot;
#X obj 689 251 *;
#X obj 689 294 int;
#X obj 689 338 t b f;
#X obj 27 123 array get weights;
#X obj 176 120 f;
#X obj 690 119 t f b;
#X obj 689 153 f;
#X obj 689 447 array set weights;
#X obj 383 340 f;
#X obj 369 280 t b f;
#N canvas 759 279 525 209 array-variables 0;
#N canvas 266 304 450 278 (subpatch) 0;
#X array b_tmp1 262144 float 2;
#X coords 0 1 262144 -1 200 140 1 0 0;
#X restore 19 28 graph;
#N canvas 266 304 450 278 (subpatch) 0;
#X array b_tmp2 262144 float 2;
#X coords 0 1 262144 -1 200 140 1 0 0;
#X restore 277 26 graph;
#X restore 28 396 pd array-variables;
#X text 174 56 1 SHIFT;
#X text 369 56 2 MULTIPLY;
#X text 688 56 3 ROLL;
#X obj 474 142 r weights_flip;
#X obj 474 204 t b f;
#X floatatom 529 206 5 0 0 0 - - - 0;
#X obj 474 173 expr ($f1-0.5)*-2;
#X obj 369 241 expr ($f1+1) * $f2;
#X obj 383 368 tab_mul_scalar b_tmp1 b_tmp2;
#X obj 707 221 array size b_tmp2;
#X obj 689 375 array get b_tmp2;
#X obj 27 151 array set b_orig;
#X obj 176 152 tab_add_scalar b_orig b_tmp1;
#X obj 25 230 r btn-restore;
#X obj 27 95 r btn-store;
#X obj 25 287 array set weights;
#X obj 25 259 array get b_orig;
#X text 26 73 STORE IN MEMORY;
#X text 24 209 RESOTRE FROM MEMORY;
#X text 26 373 helper variables;
#X obj 25 590 array get weights;
#X obj 25 667 list trim;
#X obj 145 504 r layer_name;
#X obj 106 560 symbol;
#X obj 25 524 t b b;
#X obj 25 639 list prepend set_weights;
#X obj 25 615 list prepend;
#X obj 145 537 symbol;
#X obj 25 693 s model-in;
#X obj 25 493 r btn-bend;
#X text 79 465 BENDING ACTION;
#X connect 0 0 10 0;
#X connect 1 0 23 0;
#X connect 2 0 9 0;
#X connect 3 0 5 0;
#X connect 3 1 25 0;
#X connect 4 0 12 0;
#X connect 5 0 6 0;
#X connect 6 0 7 0;
#X connect 7 0 26 0;
#X connect 7 1 4 1;
#X connect 8 0 27 0;
#X connect 9 0 28 0;
#X connect 10 0 11 1;
#X connect 10 1 9 0;
#X connect 11 0 3 0;
#X connect 13 0 24 0;
#X connect 14 0 9 0;
#X connect 14 1 13 1;
#X connect 19 0 22 0;
#X connect 20 0 23 0;
#X connect 20 1 23 1;
#X connect 22 0 20 0;
#X connect 22 0 21 0;
#X connect 23 0 14 0;
#X connect 24 0 11 0;
#X connect 25 0 5 1;
#X connect 26 0 4 0;
#X connect 28 0 13 0;
#X connect 29 0 32 0;
#X connect 30 0 8 0;
#X connect 32 0 31 0;
#X connect 36 0 42 0;
#X connect 37 0 44 0;
#X connect 38 0 43 0;
#X connect 39 0 42 1;
#X connect 40 0 36 0;
#X connect 40 1 39 0;
#X connect 41 0 37 0;
#X connect 42 0 41 0;
#X connect 43 0 39 1;
#X connect 45 0 40 0;
#X restore 27 142 pd operations;
#X text 130 143 weights operations;
#X text 145 220 loading weights;
#X obj 331 30 r model-out;
#N canvas 573 121 392 420 routing 0;
#X obj 131 96 inlet;
#X obj 131 134 route layer;
#X obj 187 192 list length;
#X obj 33 219 list;
#X obj 187 244 array size weights;
#X obj 131 166 t b a a;
#X obj 33 195 del 1;
#X floatatom 187 217 16 0 0 0 - - - 0;
#X obj 259 153 print;
#X obj 33 294 t b;
#N canvas 324 362 450 300 reset_sliders 0;
#X obj 37 37 inlet;
#X obj 37 101 send weights_roll_rec;
#X obj 37 131 send weights_shift_rec;
#X msg 37 68 0;
#X obj 37 158 send weights_multiply_rec;
#X obj 37 185 send weights_flip_rec;
#X obj 116 49 loadbang;
#X connect 0 0 3 0;
#X connect 3 0 1 0;
#X connect 3 0 2 0;
#X connect 3 0 4 0;
#X connect 3 0 5 0;
#X connect 6 0 3 0;
#X restore 33 318 pd reset_sliders;
#X text 31 20 Routes the messages other than audio signal;
#X text 31 40 Received from the nn~ object.;
#X obj 187 270 array size b_orig;
#X obj 187 297 array size b_tmp1;
#X obj 187 323 array size b_tmp2;
#X obj 33 245 array set weights;
#X obj 33 270 array set b_orig;
#X connect 0 0 1 0;
#X connect 1 0 5 0;
#X connect 1 1 8 0;
#X connect 2 0 4 0;
#X connect 2 0 7 0;
#X connect 2 0 13 0;
#X connect 2 0 14 0;
#X connect 2 0 15 0;
#X connect 3 0 16 0;
#X connect 3 0 17 0;
#X connect 5 0 6 0;
#X connect 5 1 3 1;
#X connect 5 2 2 0;
#X connect 6 0 3 0;
#X connect 6 0 9 0;
#X connect 9 0 10 0;
#X restore 331 54 pd routing;
#X obj 27 87 s model-in;
#X msg 27 52 layers;
#X msg 135 51 reload;
#X obj 135 27 r btn-reload;
#X obj 27 27 r btn-layers;
#X obj 27 228 symbol;
#X connect 0 0 3 0;
#X connect 1 0 14 0;
#X connect 7 0 8 0;
#X connect 10 0 9 0;
#X connect 11 0 9 0;
#X connect 12 0 11 0;
#X connect 13 0 10 0;
#X connect 14 0 0 0;
#X restore 524 450 pd guts;
#X obj 445 134 bng 40 250 50 0 btn-store empty empty 0 -10 0 12 #fcfcfc #000000 #000000;
#X obj 445 174 bng 40 250 50 0 btn-restore empty empty 0 -10 0 12 #fcfcfc #000000 #000000;
#X text 452 145 str;
#X text 452 185 res;
#X obj 485 134 bng 80 250 50 0 btn-bend empty empty 0 -10 0 12 #ffffff #000000 #000000;
#X text 509 166 BEND;
#X symbolatom 124 152 41 0 0 0 - layer_name - 12;
#X text 122 133 LAYER NAME;
#X obj 124 192 bng 19 250 50 0 btn-layers empty empty 0 -10 0 12 #fcfcfc #000000 #000000;
#X text 145 192 list layer names;
#X obj 57 12 inlet;
#X obj 57 64 s layer_name;
#X obj 57 36 symbol;
#X connect 18 0 20 0;
#X connect 20 0 19 0;
#X coords 0 -1 1 1 522 402 2 100 100;
#X restore 24 58 pd bending;
#X text 22 13 LAYER NAME;
#X msg 24 32 pretrained.decoder.inter_mlp.6.weight;
#X connect 2 0 0 0;
#X restore 539 346 pd bending-wrapper;
#X obj 22 378 r model-in;
#X obj 174 569 track~;
#X obj 327 569 track~;
#X obj 476 569 track~;
#X obj 22 406 model~ crickets;
#X obj 174 406 model~ birds;
#X connect 1 0 4 0;
#X connect 3 0 5 0;
#X connect 4 0 3 0;
#X connect 4 0 6 0;
#X connect 4 0 7 0;
#X connect 4 0 8 0;
#X connect 5 0 19 0;
#X connect 5 0 20 0;
#X connect 5 1 19 1;
#X connect 5 2 19 2;
#X connect 5 3 19 3;
#X connect 5 3 20 1;
#X connect 6 0 5 1;
#X connect 7 0 5 2;
#X connect 9 0 19 4;
#X connect 9 1 19 5;
#X connect 9 2 19 6;
#X connect 9 3 19 7;
#X connect 11 0 4 1;
#X connect 12 0 5 3;
#X connect 15 0 19 0;
#X connect 19 0 2 0;
#X connect 19 1 13 0;
#X connect 20 0 16 0;
