#N canvas 269 38 908 658 12;
#X obj 355 50 inlet~;
#X obj 274 50 inlet~;
#X obj 435 50 inlet~;
#X obj 515 50 inlet~;
#X obj 274 74 s~ \$0-in1;
#X obj 355 74 s~ \$0-in2;
#X obj 435 74 s~ \$0-in3;
#X obj 515 74 s~ \$0-in4;
#X obj 200 561 outlet~;
#X obj 200 496 *~;
#X obj 248 466 *~;
#X obj 296 496 *~;
#X obj 344 466 *~;
#X obj 200 529 expr~ $v1+$v2+$v3+$v4;
#X obj 40 491 outlet~;
#X obj 40 426 *~;
#X obj 88 396 *~;
#X obj 136 426 *~;
#X obj 184 396 *~;
#X obj 40 459 expr~ $v1+$v2+$v3+$v4;
#X obj 440 481 outlet~;
#X obj 440 416 *~;
#X obj 488 386 *~;
#X obj 536 416 *~;
#X obj 584 386 *~;
#X obj 440 449 expr~ $v1+$v2+$v3+$v4;
#X obj 600 551 outlet~;
#X obj 600 486 *~;
#X obj 648 456 *~;
#X obj 696 486 *~;
#X obj 744 456 *~;
#X obj 600 519 expr~ $v1+$v2+$v3+$v4;
#X obj 342 122 cnv 19 166 106 empty empty empty 20 12 0 12 #dfdfdf #404040 0;
#X obj 369 144 cnv 19 34 84 empty empty empty 20 12 0 12 #bbbbbb #404040 0;
#X obj 404 144 cnv 19 34 84 empty empty empty 20 12 0 12 #9f9f9f #404040 0;
#X obj 439 144 cnv 19 34 84 empty empty empty 20 12 0 12 #bbbbbb #404040 0;
#X obj 474 144 cnv 19 34 84 empty empty empty 20 12 0 12 #9f9f9f #404040 0;
#X floatatom 371 147 4 -1 1 0 - - \$0-o1i1 0;
#X floatatom 371 167 4 -1 1 0 - - \$0-o1i2 0;
#X floatatom 371 187 4 -1 1 0 - - \$0-o1i3 0;
#X floatatom 371 207 4 -1 1 0 - - \$0-o1i4 0;
#X floatatom 406 147 4 -1 1 0 - - \$0-o2i1 0;
#X floatatom 406 167 4 -1 1 0 - - \$0-o2i2 0;
#X floatatom 406 187 4 -1 1 0 - - \$0-o2i3 0;
#X floatatom 406 207 4 -1 1 0 - - \$0-o2i4 0;
#X floatatom 441 147 4 -1 1 0 - - \$0-o3i1 0;
#X floatatom 441 167 4 -1 1 0 - - \$0-o3i2 0;
#X floatatom 441 187 4 -1 1 0 - - \$0-o3i3 0;
#X floatatom 441 207 4 -1 1 0 - - \$0-o3i4 0;
#X floatatom 476 147 4 -1 1 0 - - \$0-o4i1 0;
#X floatatom 476 167 4 -1 1 0 - - \$0-o4i2 0;
#X floatatom 476 187 4 -1 1 0 - - \$0-o4i3 0;
#X floatatom 476 207 4 -1 1 0 - - \$0-o4i4 0;
#X text 379 125 A;
#X text 415 125 B;
#X text 450 125 C;
#X text 485 125 D;
#X text 346 147 I1;
#X text 346 167 I2;
#X text 346 187 I3;
#X text 346 207 I4;
#X obj 269 261 r~ \$0-in1;
#X obj 349 261 r~ \$0-in2;
#X obj 429 261 r~ \$0-in3;
#X obj 509 261 r~ \$0-in4;
#X obj 58 368 r \$0-o1i1;
#X obj 106 338 r \$0-o1i2;
#X obj 154 368 r \$0-o1i3;
#X obj 202 338 r \$0-o1i4;
#X obj 266 408 r \$0-o2i2;
#X obj 362 408 r \$0-o2i4;
#X obj 458 358 r \$0-o3i1;
#X obj 506 328 r \$0-o3i2;
#X obj 602 328 r \$0-o3i4;
#X obj 618 428 r \$0-o4i1;
#X obj 666 398 r \$0-o4i2;
#X obj 554 358 r \$0-o3i3;
#X obj 762 398 r \$0-o4i4;
#X obj 714 428 r \$0-o4i3;
#X obj 314 438 r \$0-o2i3;
#X obj 218 438 r \$0-o2i1;
#X connect 0 0 5 0;
#X connect 1 0 4 0;
#X connect 2 0 6 0;
#X connect 3 0 7 0;
#X connect 9 0 13 0;
#X connect 10 0 13 1;
#X connect 11 0 13 2;
#X connect 12 0 13 3;
#X connect 13 0 8 0;
#X connect 15 0 19 0;
#X connect 16 0 19 1;
#X connect 17 0 19 2;
#X connect 18 0 19 3;
#X connect 19 0 14 0;
#X connect 21 0 25 0;
#X connect 22 0 25 1;
#X connect 23 0 25 2;
#X connect 24 0 25 3;
#X connect 25 0 20 0;
#X connect 27 0 31 0;
#X connect 28 0 31 1;
#X connect 29 0 31 2;
#X connect 30 0 31 3;
#X connect 31 0 26 0;
#X connect 61 0 15 0;
#X connect 61 0 9 0;
#X connect 61 0 21 0;
#X connect 61 0 27 0;
#X connect 62 0 16 0;
#X connect 62 0 10 0;
#X connect 62 0 22 0;
#X connect 62 0 28 0;
#X connect 63 0 17 0;
#X connect 63 0 11 0;
#X connect 63 0 23 0;
#X connect 63 0 29 0;
#X connect 64 0 18 0;
#X connect 64 0 12 0;
#X connect 64 0 24 0;
#X connect 64 0 30 0;
#X connect 65 0 15 1;
#X connect 66 0 16 1;
#X connect 67 0 17 1;
#X connect 68 0 18 1;
#X connect 69 0 10 1;
#X connect 70 0 12 1;
#X connect 71 0 21 1;
#X connect 72 0 22 1;
#X connect 73 0 24 1;
#X connect 74 0 27 1;
#X connect 75 0 28 1;
#X connect 76 0 23 1;
#X connect 77 0 30 1;
#X connect 78 0 29 1;
#X connect 79 0 11 1;
#X connect 80 0 9 1;
#X coords 0 -1 1 1 170 110 2 340 120;
