#N canvas 136 66 1250 806 12;
#X obj 832 245 openpanel;
#X msg 832 316 open \$1;
#X msg 847 368 start;
#X obj 832 286 symbol;
#X obj 906 245 t b b;
#X obj 832 396 readsf~ 1 1;
#X obj 832 214 r \$0-btn-load;
#X obj 847 343 del 10;
#X text 830 181 THIS PLAYS SAMPLE IN LOOPS;
#X obj 444 32 inlet~;
#X obj 514 32 inlet~;
#X obj 584 32 inlet~;
#X obj 654 32 inlet~;
#X obj 724 32 inlet~;
#X obj 794 32 inlet~;
#X obj 864 32 inlet~;
#X obj 934 32 inlet~;
#X obj 444 57 s~ \$0-l0;
#X obj 514 56 s~ \$0-l1;
#X obj 584 56 s~ \$0-l2;
#X obj 654 56 s~ \$0-l3;
#X obj 724 56 s~ \$0-l4;
#X obj 794 56 s~ \$0-l5;
#X obj 864 56 s~ \$0-l6;
#X obj 934 56 s~ \$0-l7;
#X obj 832 421 send~ \$0-model_in;
#X obj 65 527 outlet~;
#X obj 65 501 xfade~;
#X obj 104 470 r \$0-xfade;
#X obj 84 441 r~ \$0-model_in;
#X text 652 9 latents;
#X obj 42 42 cnv 19 131 76 empty empty empty 20 12 0 12 #e0e0e0 #404040 0;
#X obj 45 79 tgl 14 0 \$0-sample-on empty empty 0 -10 0 12 #fcfcfc #000000 #000000 0 1;
#X obj 123 79 bng 14 250 50 0 \$0-btn-load empty empty 0 -10 0 12 #fcfcfc #000000 #000000;
#X obj 48 100 hsl 120 12 0 1 0 0 \$0-xfade empty empty -2 -10 0 12 #fcfcfc #000000 #000000 0 1;
#X obj 221 23 loadbang;
#X obj 221 47 symbol \$1;
#X obj 221 71 s \$0-model_name-set;
#X obj 42 22 cnv 19 131 25 empty empty empty 20 12 0 12 #9f9f9f #404040 0;
#X listbox 66 26 17 0 0 0 - \$0-model_name-set - 10;
#X text 138 77 LOAD;
#X text 61 76 ENCODE;
#X obj 44 24 tgl 19 0 \$0-model_activate empty empty 0 -10 0 12 #000000 #ffffff #000000 0 1;
#X obj 184 302 f \$0;
#X obj 184 274 loadbang;
#X obj 68 234 r \$0-model_activate;
#X obj 65 410 catch~ \$0-model_out;
#X text 67 379 MIX;
#X text 67 215 MODEL CONSTRUCTION;
#X obj 282 534 outlet;
#X obj 483 153 s \$0-model_message_in;
#X obj 282 509 r \$0-model_message_out;
#X obj 483 122 spigot;
#X text 535 113 send messages only when;
#X text 535 128 bending is on;
#X obj 45 56 tgl 14 0 \$0-model_bending empty empty 0 -10 0 12 #fcfcfc #000000 #000000 0 1;
#X text 61 53 ENABLE BENDING;
#X obj 522 90 r \$0-model_bending;
#X obj 376 279 print object_id;
#X obj 376 229 loadbang;
#X obj 376 253 f \$0;
#N canvas 150 74 1354 775 \$0-build-model 1;
#X obj 16 222 until;
#X obj 16 256 f;
#X obj 54 246 + 1;
#X msg 16 147 8;
#X obj 54 275 mod;
#X obj 96 400 expr 20+$f1*100;
#X text 103 373 x position;
#X text 236 373 y position;
#X obj 228 401 mod 2;
#X text 570 393 index;
#X text 569 406 r~ id;
#X text 570 419 expr~ id;
#X obj 16 103 t b b b;
#X obj 228 454 expr 220+$f1*35;
#X text 357 504 4;
#X text 485 505 5;
#X text 566 504 6;
#X text 244 506 3;
#X text 134 506 2;
#X text 22 509 1;
#X text 353 645 r~;
#X text 354 657 expr~;
#X text 353 670 r~ -> expr~;
#X text 354 683 encoder~ -> expr~;
#X text 354 697 sample_on -> expr~;
#X text 355 710 expr~ -> decoder~;
#X obj 492 392 expr $f1 \; $f1*2+7 \; $f1*2+8 \;;
#X obj 16 33 inlet;
#X obj 16 68 select 1 0;
#X obj 793 321 symbol \$1;
#X obj 495 50 inlet;
#X obj 495 73 f;
#X text 490 30 parent id;
#X text 16 12 active;
#X obj 495 97 s \$0-parent_id;
#X obj 360 397 f;
#X obj 378 369 r \$0-parent_id;
#X obj 895 451 f;
#X obj 913 422 r \$0-parent_id;
#X obj 1131 288 r \$0-clear;
#X obj 16 180 t f f;
#X obj 677 112 print parent_id;
#X obj 677 88 r \$0-parent_id;
#X obj 16 308 t b f f b f, f 57;
#X obj 16 401 f \$0;
#X obj 16 558 pack f f f f f f f, f 95;
#X text 641 502 7;
#X obj 793 490 pack f s f, f 15;
#X obj 793 418 f \$0;
#X msg 793 530 \; pd-\$1-nn_object obj 300 10 r~ \$3-model_in \; pd-\$1-nn_object obj 300 50 nn~ \$2.ts encode 8192 \; pd-\$1-nn_object connect 0 0 1 0 \; pd-\$1-nn_object obj 300 350 nn~ \$2.ts decode 8192 \; pd-\$1-nn_object obj 700 60 r \$3-sample_on \; pd-\$1-nn_object obj 300 390 throw~ \$3-model_out \; pd-\$1-nn_object connect 2 0 4 0 \; pd-\$1-nn_object obj 500 430 s \$3-model_message_out \; pd-\$1-nn_object connect 2 1 5 0 \; pd-\$1-nn_object obj 150 310 r \$3-model_message_in \; pd-\$1-nn_object connect 6 0 2 0, f 54;
#X text 20 374 inst id;
#N canvas 398 138 1072 497 \$0-nn_object 0;
#X obj 300 10 r~ 1039-model_in;
#X obj 300 50 nn~ crickets.ts encode 8192;
#X obj 300 350 nn~ crickets.ts decode 8192;
#X obj 700 60 r 1039-sample_on;
#X obj 300 390 throw~ 1039-model_out;
#X obj 500 430 s 1039-model_message_out;
#X obj 150 310 r 1039-model_message_in;
#X obj 20 110 r~ 1039-l0;
#X obj 20 220 expr~ ($v1+$v2*$v3);
#X obj 120 110 r~ 1039-l1;
#X obj 120 255 expr~ ($v1+$v2*$v3);
#X obj 220 110 r~ 1039-l2;
#X obj 220 220 expr~ ($v1+$v2*$v3);
#X obj 320 110 r~ 1039-l3;
#X obj 320 255 expr~ ($v1+$v2*$v3);
#X obj 420 110 r~ 1039-l4;
#X obj 420 220 expr~ ($v1+$v2*$v3);
#X obj 520 110 r~ 1039-l5;
#X obj 520 255 expr~ ($v1+$v2*$v3);
#X obj 620 110 r~ 1039-l6;
#X obj 620 220 expr~ ($v1+$v2*$v3);
#X obj 720 110 r~ 1039-l7;
#X obj 720 255 expr~ ($v1+$v2*$v3);
#X connect 0 0 1 0;
#X connect 1 0 8 1;
#X connect 1 1 10 1;
#X connect 1 2 12 1;
#X connect 1 3 14 1;
#X connect 1 4 16 1;
#X connect 1 5 18 1;
#X connect 1 6 20 1;
#X connect 1 7 22 1;
#X connect 2 0 4 0;
#X connect 2 1 5 0;
#X connect 3 0 8 2;
#X connect 3 0 10 2;
#X connect 3 0 12 2;
#X connect 3 0 14 2;
#X connect 3 0 16 2;
#X connect 3 0 18 2;
#X connect 3 0 20 2;
#X connect 3 0 22 2;
#X connect 6 0 2 0;
#X connect 7 0 8 0;
#X connect 8 0 2 0;
#X connect 9 0 10 0;
#X connect 10 0 2 1;
#X connect 11 0 12 0;
#X connect 12 0 2 2;
#X connect 13 0 14 0;
#X connect 14 0 2 3;
#X connect 15 0 16 0;
#X connect 16 0 2 4;
#X connect 17 0 18 0;
#X connect 18 0 2 5;
#X connect 19 0 20 0;
#X connect 20 0 2 6;
#X connect 21 0 22 0;
#X connect 22 0 2 7;
#X restore 806 51 pd \$0-nn_object;
#X msg 122 36 1;
#X obj 1131 316 f \$0;
#X msg 1131 346 \; pd-\$1-nn_object clear;
#X obj 793 356 t b s b, f 15;
#X obj 82 98 s \$0-clear;
#X msg 16 629 \; pd-\$1-nn_object obj \$2 110 r~ \$4-l\$5 \; pd-\$1-nn_object obj \$2 \$3 expr~ ($v1+$v2*$v3) \; pd-\$1-nn_object connect \$6 0 \$7 0 \; pd-\$1-nn_object connect 1 \$5 \$7 1 \; pd-\$1-nn_object connect 3 0 \$7 2 \; pd-\$1-nn_object connect \$7 0 2 \$5 \;;
#X connect 0 0 1 0;
#X connect 1 0 2 0;
#X connect 1 0 43 0;
#X connect 2 0 4 0;
#X connect 3 0 40 0;
#X connect 4 0 1 1;
#X connect 5 0 45 1;
#X connect 8 0 13 0;
#X connect 12 0 3 0;
#X connect 12 1 29 0;
#X connect 12 2 56 0;
#X connect 13 0 45 2;
#X connect 26 0 45 4;
#X connect 26 1 45 5;
#X connect 26 2 45 6;
#X connect 27 0 28 0;
#X connect 28 0 12 0;
#X connect 28 1 56 0;
#X connect 29 0 55 0;
#X connect 30 0 31 0;
#X connect 31 0 34 0;
#X connect 35 0 45 3;
#X connect 36 0 35 1;
#X connect 37 0 47 2;
#X connect 38 0 37 1;
#X connect 39 0 53 0;
#X connect 40 0 0 0;
#X connect 40 1 4 1;
#X connect 42 0 41 0;
#X connect 43 0 44 0;
#X connect 43 1 5 0;
#X connect 43 2 8 0;
#X connect 43 3 35 0;
#X connect 43 4 26 0;
#X connect 44 0 45 0;
#X connect 45 0 57 0;
#X connect 47 0 49 0;
#X connect 48 0 47 0;
#X connect 52 0 28 0;
#X connect 53 0 54 0;
#X connect 55 0 48 0;
#X connect 55 1 47 1;
#X connect 55 2 37 0;
#X restore 68 332 pd \$0-build-model;
#X connect 0 0 3 1;
#X connect 0 0 4 0;
#X connect 1 0 5 0;
#X connect 2 0 5 0;
#X connect 3 0 1 0;
#X connect 4 0 7 0;
#X connect 4 1 3 0;
#X connect 5 0 25 0;
#X connect 5 1 4 0;
#X connect 6 0 0 0;
#X connect 7 0 2 0;
#X connect 9 0 17 0;
#X connect 9 1 52 0;
#X connect 10 0 18 0;
#X connect 11 0 19 0;
#X connect 12 0 20 0;
#X connect 13 0 21 0;
#X connect 14 0 22 0;
#X connect 15 0 23 0;
#X connect 16 0 24 0;
#X connect 27 0 26 0;
#X connect 28 0 27 2;
#X connect 29 0 27 1;
#X connect 35 0 36 0;
#X connect 36 0 37 0;
#X connect 43 0 61 1;
#X connect 44 0 43 0;
#X connect 45 0 61 0;
#X connect 46 0 27 0;
#X connect 51 0 49 0;
#X connect 52 0 50 0;
#X connect 57 0 52 1;
#X connect 59 0 60 0;
#X connect 60 0 58 0;
#X coords 0 -1 1 1 135 100 2 40 20;
