#N canvas 559 188 939 744 12;
#X obj 257 26 noise~;
#X obj 257 111 lop~;
#X obj 257 305 outlet~;
#X obj 282 59 r \$0-detail;
#X obj 282 83 - 10;
#X obj 62 102 cnv 19 170 98 empty empty empty 20 12 0 12 #e0e0e0 #404040 0;
#X obj 67 155 hsl 162 12 10 10000 1 0 \$0-detail empty spectral\ detail -2 -10 0 12 #fcfcfc #000000 #000000 0 1;
#X text 191 103 NOISE;
#X text 62 101 range;
#X floatatom 65 119 6 0 0 0 - \$0-range-min-set \$0-range-min 10;
#X floatatom 105 119 6 0 0 0 - \$0-range-max-set \$0-range-max 10;
#X obj 34 432 s \$0-range-min-set;
#X msg 34 404 -1;
#X obj 174 432 s \$0-range-max-set;
#X msg 174 404 1;
#X obj 34 375 loadbang;
#X obj 67 185 hsl 162 12 0 1 0 0 \$0-amount empty amount -2 -10 0 12 #fcfcfc #000000 #000000 0 1;
#X obj 257 275 *~;
#X obj 275 247 r \$0-amount;
#X obj 257 220 sc~ -1 1;
#X obj 310 133 r \$0-range-min;
#X obj 418 133 r \$0-range-max;
#X obj 418 157 t b f;
#X obj 310 187 pack f f;
#X connect 0 0 1 0;
#X connect 1 0 19 0;
#X connect 3 0 4 0;
#X connect 4 0 1 1;
#X connect 12 0 11 0;
#X connect 14 0 13 0;
#X connect 15 0 12 0;
#X connect 15 0 14 0;
#X connect 17 0 2 0;
#X connect 18 0 17 1;
#X connect 19 0 17 0;
#X connect 20 0 23 0;
#X connect 21 0 22 0;
#X connect 22 0 23 0;
#X connect 22 1 23 1;
#X connect 23 0 19 1;
#X coords 0 -1 1 1 174 102 2 60 100;
