#N canvas 332 192 555 427 12;
#X obj 18 42 inlet~;
#X obj 18 270 outlet~;
#X obj 132 130 loadbang;
#X obj 132 192 unpack f f;
#X obj 18 236 expr~ ($v1+1)/2 * ($v3-$v2) + $v2;
#X text 228 36 scales from [-1 \, 1];
#X text 228 53 to a range provided;
#X text 229 69 either as init args;
#X text 229 85 or as a message;
#X obj 77 42 inlet;
#X text 16 22 sig;
#X text 76 23 range;
#X obj 132 160 pack \$1 \$2;
#X connect 0 0 4 0;
#X connect 2 0 12 0;
#X connect 3 0 4 1;
#X connect 3 1 4 2;
#X connect 4 0 1 0;
#X connect 9 0 3 0;
#X connect 12 0 3 0;
