#N canvas 324 121 939 532 12;
#X obj 331 31 inlet~;
#X obj 331 110 *~;
#X obj 349 133 r \$0-mute;
#X obj 349 157 expr 1-($f1);
#X obj 331 184 *~;
#X obj 349 58 r \$0-volume;
#X obj 349 84 clip 0 1;
#X obj 102 103 cnv 19 131 100 empty empty empty 20 12 0 12 #e0e0e0 #404040 0;
#X obj 213 105 tgl 16 0 \$0-mute \$0-mute-set empty 0 -10 0 12 #fcfcfc #000000 #000000 0 1;
#X text 216 105 M;
#X obj 108 147 hsl 119 12 0 1 0 0 \$0-volume empty volume -2 -10 0 12 #fcfcfc #000000 #000000 0 1;
#X floatatom 121 106 4 0 1 0 LP - \$0-lp 10;
#X floatatom 171 106 4 0 1 0 HP - \$0-hp 10;
#X obj 370 237 expr pow(10 \, $f1*4.3424);
#X obj 398 314 expr pow(10 \, (1.2-$f1)*4.3424);
#X obj 398 290 r \$0-lp;
#X obj 370 212 r \$0-hp;
#X obj 331 265 hip~ 1;
#X obj 331 350 lop~ 24000;
#X obj 331 458 dac~;
#X obj 331 407 expr~ $v1*(1-$v2) \; $v1*$v2;
#X obj 108 183 hsl 119 12 -1 1 0 0 \$0-panning \$0-panning-set panning -2 -10 0 12 #fcfcfc #000000 #000000 0 1;
#X obj 454 382 expr ($f1+1)/2;
#X obj 63 355 s \$0-panning-set;
#X msg 63 330 0;
#X obj 63 304 loadbang;
#X obj 63 380 s \$0-mute-set;
#X obj 454 355 r \$0-panning;
#X connect 0 0 1 0;
#X connect 1 0 4 0;
#X connect 2 0 3 0;
#X connect 3 0 4 1;
#X connect 4 0 17 0;
#X connect 5 0 6 0;
#X connect 6 0 1 1;
#X connect 13 0 17 1;
#X connect 14 0 18 1;
#X connect 15 0 14 0;
#X connect 16 0 13 0;
#X connect 17 0 18 0;
#X connect 18 0 20 0;
#X connect 20 0 19 0;
#X connect 20 1 19 1;
#X connect 22 0 20 1;
#X connect 24 0 23 0;
#X connect 24 0 26 0;
#X connect 25 0 24 0;
#X connect 27 0 22 0;
#X coords 0 -1 1 1 135 105 2 100 100;
